<svg width="15" height="16" viewBox="0 0 15 16" fill="none" xmlns="http://www.w3.org/2000/svg">
<path d="M4.92188 14.0625C5.10676 14.0633 5.28998 14.0274 5.46094 13.957C5.6319 13.8866 5.78724 13.7831 5.91797 13.6523C6.04871 13.5216 6.15226 13.3663 6.22266 13.1953C6.29306 13.0243 6.3289 12.8411 6.32812 12.6562V9.84375" stroke="#6B39AA" stroke-width="2" stroke-linecap="round" stroke-linejoin="round"/>
<path d="M10.0781 14.0625C9.89325 14.0633 9.71004 14.0274 9.53907 13.957C9.36811 13.8866 9.21278 13.7831 9.08204 13.6523C8.9513 13.5216 8.84775 13.3663 8.77735 13.1953C8.70696 13.0243 8.67111 12.8411 8.67189 12.6562V9.84375" stroke="#6B39AA" stroke-width="2" stroke-linecap="round" stroke-linejoin="round"/>
<path d="M8.90625 9.84376H9.84375C10.0286 9.84299 10.2118 9.87883 10.3828 9.94923C10.5538 10.0196 10.7091 10.1232 10.8398 10.2539C10.9706 10.3847 11.0741 10.54 11.1445 10.7109C11.2149 10.8819 11.2508 11.0651 11.25 11.25V11.7188C11.2492 11.9037 11.2851 12.0869 11.3555 12.2578C11.4259 12.4288 11.5294 12.5841 11.6602 12.7149C11.7909 12.8456 11.9462 12.9492 12.1172 13.0195C12.2882 13.0899 12.4714 13.1258 12.6562 13.125" stroke="#6B39AA" stroke-width="2" stroke-linecap="round" stroke-linejoin="round"/>
<path d="M6.09375 9.84376H5.15625C4.97136 9.84299 4.78815 9.87883 4.61719 9.94923C4.44622 10.0196 4.29089 10.1232 4.16015 10.2539C4.02942 10.3847 3.92586 10.54 3.85547 10.7109C3.78507 10.8819 3.74922 11.0651 3.75 11.25V11.7188C3.75078 11.9037 3.71493 12.0869 3.64453 12.2578C3.57414 12.4288 3.47058 12.5841 3.33985 12.7149C3.20911 12.8456 3.05378 12.9492 2.88281 13.0195C2.71185 13.0899 2.52864 13.1258 2.34375 13.125" stroke="#6B39AA" stroke-width="2" stroke-linecap="round" stroke-linejoin="round"/>
<path d="M6.55078 3.75C6.2754 3.31905 5.89597 2.96435 5.44746 2.71859C4.99895 2.47283 4.4958 2.34393 3.98438 2.34375C3.75697 2.73737 3.62053 3.17688 3.58504 3.63008C3.54956 4.08328 3.61593 4.53867 3.7793 4.96289C3.45891 5.43519 3.2856 5.9918 3.28125 6.5625V7.03125C3.28125 7.77717 3.57757 8.49254 4.10501 9.01999C4.63246 9.54743 5.34783 9.84375 6.09375 9.84375H8.90625C9.65217 9.84375 10.3675 9.54743 10.895 9.01999C11.4224 8.49254 11.7188 7.77717 11.7188 7.03125V6.5625C11.7144 5.9918 11.5411 5.43519 11.2207 4.96289C11.3841 4.53867 11.4504 4.08328 11.415 3.63008C11.3795 3.17688 11.243 2.73737 11.0156 2.34375C10.5042 2.34393 10.001 2.47283 9.55254 2.71859C9.10403 2.96435 8.7246 3.31905 8.44922 3.75H6.55078Z" stroke="#6B39AA" stroke-width="2" stroke-linecap="round" stroke-linejoin="round"/>
</svg>
