<svg width="15" height="15" viewBox="0 0 15 15" fill="none" xmlns="http://www.w3.org/2000/svg">
<path d="M7.5 9.84375C8.79442 9.84375 9.84375 8.79442 9.84375 7.5C9.84375 6.20558 8.79442 5.15625 7.5 5.15625C6.20558 5.15625 5.15625 6.20558 5.15625 7.5C5.15625 8.79442 6.20558 9.84375 7.5 9.84375Z" stroke="#C81C1C" stroke-opacity="0.64" stroke-width="2" stroke-miterlimit="10"/>
<path d="M10.0781 2.10938H4.92188C3.36857 2.10938 2.10938 3.36857 2.10938 4.92188V10.0781C2.10938 11.6314 3.36857 12.8906 4.92188 12.8906H10.0781C11.6314 12.8906 12.8906 11.6314 12.8906 10.0781V4.92188C12.8906 3.36857 11.6314 2.10938 10.0781 2.10938Z" stroke="#C81C1C" stroke-opacity="0.64" stroke-width="2" stroke-linecap="round" stroke-linejoin="round"/>
<path d="M10.5469 5.15625C10.9352 5.15625 11.25 4.84145 11.25 4.45312C11.25 4.0648 10.9352 3.75 10.5469 3.75C10.1585 3.75 9.84375 4.0648 9.84375 4.45312C9.84375 4.84145 10.1585 5.15625 10.5469 5.15625Z" fill="#B72222"/>
</svg>
